<svg xmlns="http://www.w3.org/2000/svg" width="24" height="24" viewBox="0 0 24 24" fill="none">
<path d="M18.71 19.5C16.88 20.74 14.62 21.5 12.1 21.5C6.35 21.5 1.64 16.79 1.64 11.04C1.64 5.29 6.35 0.58 12.1 0.58C17.85 0.58 22.56 5.29 22.56 11.04C22.56 13.56 21.8 15.82 20.56 17.65L22.11 22.5L18.71 19.5ZM12.1 2.08C7.19 2.08 3.14 6.13 3.14 11.04S7.19 20 12.1 20C13.8 20 15.36 19.54 16.68 18.74L19.5 20.5L18.5 18.14C19.46 16.68 20 14.92 20 13.04C20 8.13 15.95 4.08 11.04 4.08H12.1V2.08Z" fill="black"/>
<path d="M17.05 13.16C17.23 13.34 17.23 13.63 17.05 13.81L13.41 17.45C13.05 17.81 12.47 17.81 12.11 17.45L7.01 12.35C6.83 12.17 6.83 11.88 7.01 11.7L10.65 8.06C11.01 7.7 11.59 7.7 11.95 8.06L17.05 13.16Z" fill="black"/>
</svg>