<svg xmlns="http://www.w3.org/2000/svg" width="24" height="24" viewBox="0 0 24 24" fill="none">
<path d="M22.56 12.25C22.56 11.47 22.49 10.72 22.36 10H12V14.255H17.92C17.665 15.63 16.89 16.795 15.725 17.575V20.335H19.28C21.36 18.42 22.56 15.6 22.56 12.25Z" fill="#4285F4"/>
<path d="M12 23C15.24 23 17.955 21.935 19.28 20.335L15.725 17.575C14.745 18.235 13.48 18.625 12 18.625C8.875 18.625 6.235 16.69 5.365 13.97H1.68V16.82C3.005 19.455 7.24 23 12 23Z" fill="#34A853"/>
<path d="M5.365 13.97C5.14 13.31 5.015 12.61 5.015 11.875S5.14 10.44 5.365 9.78V6.93H1.68C0.96 8.355 0.56 9.96 0.56 11.625S0.96 14.895 1.68 16.32L5.365 13.97Z" fill="#FBBC05"/>
<path d="M12 4.625C13.615 4.625 15.06 5.21 16.205 6.305L19.36 3.15C17.955 1.86 15.24 1 12 1C7.24 1 3.005 4.545 1.68 7.18L5.365 10.03C6.235 7.31 8.875 5.375 12 5.375V4.625Z" fill="#EA4335"/>
</svg>